<svg xmlns="http://www.w3.org/2000/svg" width="16" height="16"><path fill="#7347c1" d="M7.667.166a7.5 7.5 0 11-.002 15.001A7.5 7.5 0 017.667.166zM4.646 13.895L1.344 4.848a6.923 6.923 0 003.302 9.047zm5.319.3a.68.68 0 01-.05-.094L7.789 8.272l-2.077 6.034a6.927 6.927 0 004.254-.111zm1.182-.547a6.915 6.915 0 003.44-5.982 6.89 6.89 0 00-.847-3.322c.03.222.048.458.048.713 0 .702-.133 1.491-.527 2.479zm-.058-9.864c0-.637.481-1.228 1.162-1.228.03 0 .06.003.09.005A6.893 6.893 0 007.666.744a6.915 6.915 0 00-5.784 3.12c.163.005.315.008.445.008.725 0 1.845-.088 1.845-.088.372-.02.418.526.045.57 0 0-.376.044-.793.066l2.521 7.497L7.46 7.375 6.383 4.42a13.399 13.399 0 01-.727-.065c-.372-.022-.329-.592.045-.571 0 0 1.142.088 1.822.088.724 0 1.845-.088 1.845-.088.372-.02.417.526.044.57 0 0-.374.044-.792.066l2.502 7.44.69-2.305c.35-.9.527-1.646.527-2.238 0-.856-.308-1.449-.57-1.91-.351-.57-.68-1.052-.68-1.623z"/></svg>