<svg xmlns="http://www.w3.org/2000/svg" width="13" height="17" viewBox="0 0 13 17"><g><g><path fill="#7347c1" d="M13 4.281V15.19c0 .998-.816 1.81-1.818 1.81H1.818A1.816 1.816 0 0 1 0 15.189V1.81c0-.997.816-1.81 1.818-1.81h6.863zM11.886 15.19L11.859 4.72l-2.334.007a1.259 1.259 0 0 1-1.26-1.255v-2.37l-6.447.006a.703.703 0 0 0-.704.7V15.19c0 .388.316.702.704.702h9.364a.703.703 0 0 0 .704-.702zM6.06 7.364c.295.232.494.615.494 1.065 0 .45-.151.832-.425 1.091-.357.335-.885.486-1.503.486-.137 0-.26-.008-.356-.021v1.644H3.235V7.091a8.63 8.63 0 0 1 1.413-.095c.645 0 1.104.122 1.413.368zm-.542 1.092c0-.423-.295-.676-.816-.676-.213 0-.357.02-.432.04v1.36c.089.02.199.027.35.027.555 0 .898-.28.898-.751zm4.701 1.816c0 .77-.597 1.425-1.866 1.425-.528 0-1.05-.136-1.31-.28l.213-.859c.281.143.713.287 1.16.287.48 0 .733-.199.733-.499 0-.287-.22-.45-.775-.648-.768-.267-1.269-.69-1.269-1.358 0-.785.659-1.385 1.75-1.385.52 0 .904.109 1.179.231l-.233.84a2.21 2.21 0 0 0-.968-.219c-.452 0-.672.205-.672.444 0 .294.261.423.858.648.816.3 1.2.723 1.2 1.373z"/></g></g></svg>