<svg xmlns="http://www.w3.org/2000/svg" xmlns:xlink="http://www.w3.org/1999/xlink" width="256" height="256" viewBox="0 0 100 100"><defs><linearGradient id="a"><stop offset="0" stop-color="#0674ec"/><stop offset="1" stop-color="#6d40b7"/></linearGradient><linearGradient xlink:href="#a" id="b" x1="50.781" y1="0" x2="50.781" y2="117.188" gradientUnits="userSpaceOnUse"/></defs><rect width="100" height="100" rx="50" fill="url(#b)"/><g style="line-height:1.25;-inkscape-font-specification:'Quicksand Bold'"><path d="M28.811 23.487q1.094 0 2.266.625 1.25.547 1.875 1.485l18.984 29.218-3.906-.156 19.453-29.062q1.484-2.11 3.828-2.11 1.875 0 3.36 1.328 1.484 1.328 1.484 3.438v45.234q0 2.031-1.328 3.438-1.329 1.328-3.516 1.328-2.188 0-3.594-1.328-1.328-1.407-1.328-3.438V36.69l3.047.703L53.498 61.69q-.703.86-1.796 1.485-1.016.625-2.11.547-1.015.078-2.11-.547-1.015-.625-1.718-1.485L30.842 38.097l2.031-4.141v39.531q0 2.031-1.25 3.438-1.25 1.328-3.28 1.328-1.954 0-3.204-1.328-1.25-1.407-1.25-3.438V28.253q0-1.953 1.406-3.36 1.485-1.406 3.516-1.406z" style="-inkscape-font-specification:'Quicksand Bold'" aria-label="M" font-weight="700" font-size="78.125" font-family="Quicksand" fill="#fff"/></g></svg>